<?xml version="1.0" standalone="no"?>
<!DOCTYPE svg PUBLIC "-//W3C//DTD SVG 20010904//EN"
 "http://www.w3.org/TR/2001/REC-SVG-20010904/DTD/svg10.dtd">
<svg version="1.0" xmlns="http://www.w3.org/2000/svg"
 width="4096.000000pt" height="1129.000000pt" viewBox="0 0 4096.000000 1129.000000"
 preserveAspectRatio="xMidYMid meet">

<g transform="translate(0.000000,1129.000000) scale(0.100000,-0.100000)"
fill="#000000" stroke="none">
<path d="M29720 10283 l0 -1008 128 -54 c487 -206 1040 -488 1540 -783 l152
-90 40 16 c48 19 79 20 132 4 80 -24 117 -87 80 -137 l-20 -27 141 -95 c336
-223 685 -477 942 -682 83 -66 155 -124 161 -129 7 -5 23 -2 40 7 60 31 150
11 206 -45 33 -33 38 -44 38 -84 0 -32 -6 -52 -19 -65 -19 -19 -18 -21 102
-127 67 -58 227 -205 354 -326 204 -192 235 -218 252 -208 11 5 44 10 73 10
165 0 302 -178 224 -292 l-23 -34 100 -110 c156 -169 352 -395 485 -557 118
-143 122 -147 122 -113 0 50 18 83 55 101 46 21 73 19 132 -10 150 -75 149
-275 -1 -275 -19 0 -45 4 -58 9 -17 6 26 -58 145 -217 l169 -227 67 -5 c105
-8 185 -66 227 -165 21 -52 18 -130 -8 -177 -17 -30 -20 -43 -11 -56 6 -9 70
-111 143 -227 73 -115 145 -229 161 -252 16 -23 29 -44 29 -48 0 -4 33 -64 74
-133 288 -496 577 -1086 811 -1657 227 -553 485 -1352 605 -1872 l22 -93 1714
0 1714 0 0 2904 0 2905 -121 217 c-1073 1927 -2497 3676 -4132 5076 l-161 138
-3413 0 -3413 0 0 -1007z m4311 544 c72 -48 36 -94 -45 -59 -70 32 -84 82 -22
82 18 0 48 -10 67 -23z m-2744 -256 c53 -24 65 -57 32 -84 -19 -16 -36 -18
-94 -15 -109 5 -171 62 -113 102 31 22 123 20 175 -3z m3013 -1 c60 -31 66
-89 10 -90 -23 0 -102 43 -113 61 -29 47 33 65 103 29z m2293 -16 c65 -33 96
-77 63 -90 -31 -12 -126 55 -126 88 0 22 21 23 63 2z m-4785 -155 c67 -33 83
-90 32 -116 -67 -34 -226 4 -251 60 -35 77 103 111 219 56z m2390 10 c105 -51
63 -129 -46 -84 -41 18 -82 52 -82 70 0 39 62 46 128 14z m2398 -21 c37 -25
50 -40 52 -62 3 -28 2 -29 -30 -22 -63 13 -138 80 -121 109 10 16 53 5 99 -25z
m-2036 -120 c53 -28 69 -51 54 -75 -17 -28 -51 -27 -110 2 -53 26 -76 58 -59
84 11 18 68 12 115 -11z m-2235 -30 c136 -70 119 -168 -30 -168 -132 0 -262
102 -208 162 28 31 53 38 123 34 44 -2 81 -11 115 -28z m4223 6 c56 -28 92
-65 92 -95 0 -29 -46 -24 -108 12 -54 30 -79 65 -69 93 9 22 25 20 85 -10z
m-269 -65 c50 -28 68 -56 48 -77 -14 -13 -20 -12 -62 8 -70 34 -97 90 -43 90
11 0 37 -9 57 -21z m-1814 -76 c98 -49 113 -133 24 -133 -70 0 -185 75 -177
117 8 42 83 50 153 16z m-1734 -7 c211 -49 262 -226 66 -226 -109 0 -221 55
-254 125 -16 34 -16 36 4 63 20 27 69 50 108 51 11 1 45 -5 76 -13z m3773 -1
c52 -22 116 -83 116 -110 0 -33 -25 -38 -76 -15 -92 40 -140 93 -114 125 16
19 28 19 74 0z m-288 -51 c43 -21 84 -62 84 -85 0 -14 -7 -19 -31 -19 -68 0
-155 81 -122 113 10 11 33 8 69 -9z m-4045 -80 c110 -65 72 -153 -61 -141 -93
8 -160 53 -160 107 0 22 7 33 28 45 37 21 149 15 193 -11z m2677 -41 c63 -30
90 -92 50 -116 -39 -25 -168 50 -168 98 0 46 45 53 118 18z m1650 -9 c57 -28
112 -84 112 -114 0 -46 -61 -45 -145 5 -64 37 -104 103 -78 128 14 14 61 6
111 -19z m292 5 c86 -51 79 -120 -8 -75 -40 21 -75 63 -69 80 9 22 35 20 77
-5z m-2457 -10 c50 -13 107 -64 107 -95 0 -60 -113 -56 -185 8 -74 64 -27 117
78 87z m1859 -20 c58 -30 90 -91 53 -105 -42 -16 -155 58 -155 101 0 39 30 40
102 4z m-2927 -33 c90 -42 126 -105 84 -145 -54 -50 -214 -9 -266 68 -28 42
-29 55 -3 81 29 29 119 27 185 -4z m-620 -40 c54 -25 115 -86 115 -114 0 -29
-28 -60 -66 -72 -135 -45 -347 78 -289 166 22 34 48 43 125 43 48 1 78 -5 115
-23z m2121 -67 c50 -24 114 -91 114 -118 0 -60 -92 -67 -177 -13 -70 45 -102
109 -71 140 19 19 87 14 134 -9z m1702 -3 c129 -65 164 -194 44 -158 -97 29
-194 128 -163 166 19 23 64 20 119 -8z m325 -16 c49 -31 70 -71 48 -93 -15
-15 -116 36 -138 70 -37 56 16 70 90 23z m-667 -4 c78 -36 119 -101 77 -124
-31 -18 -115 19 -157 68 -29 35 -32 50 -14 68 17 17 36 15 94 -12z m-2443 -42
c47 -16 117 -81 117 -109 0 -31 -38 -55 -87 -55 -122 0 -237 125 -153 167 33
17 67 16 123 -3z m-547 -57 c123 -62 148 -164 48 -197 -133 -44 -354 95 -296
187 32 50 159 55 248 10z m3320 -62 c56 -33 114 -99 114 -130 0 -36 -35 -50
-86 -36 -111 30 -212 142 -168 186 22 22 83 13 140 -20z m297 6 c37 -14 97
-71 97 -91 0 -26 -16 -33 -54 -26 -76 14 -157 126 -92 126 14 0 36 -4 49 -9z
m-1585 -38 c41 -23 82 -74 82 -100 0 -20 -31 -43 -58 -43 -69 1 -172 80 -172
131 0 55 66 60 148 12z m910 11 c81 -40 116 -102 77 -134 -22 -18 -82 1 -137
43 -49 38 -68 78 -48 101 18 23 49 20 108 -10z m-1412 -13 c53 -24 109 -74
124 -111 11 -25 10 -34 -5 -56 -16 -25 -21 -26 -80 -22 -48 3 -74 11 -111 34
-54 33 -94 84 -94 120 0 52 88 70 166 35z m-1110 -66 c92 -28 174 -109 174
-172 0 -29 -35 -61 -82 -74 -84 -22 -241 41 -288 116 -34 55 -24 106 25 133
29 16 113 14 171 -3z m603 -5 c72 -36 105 -107 62 -130 -88 -46 -263 74 -199
138 18 18 94 14 137 -8z m2253 -81 c72 -37 138 -109 138 -153 0 -23 -29 -46
-58 -46 -45 0 -144 54 -189 103 -92 100 -21 162 109 96z m366 -25 c64 -42 94
-106 56 -121 -45 -17 -174 67 -174 115 0 43 57 46 118 6z m-3822 2 c134 -62
124 -172 -16 -170 -136 1 -245 128 -152 179 41 22 110 18 168 -9z m2129 -21
c83 -39 135 -98 135 -151 0 -93 -155 -81 -268 21 -52 46 -70 96 -48 130 27 41
94 41 181 0z m958 -2 c38 -26 87 -85 87 -104 0 -4 -7 -15 -16 -23 -61 -62
-268 84 -213 150 20 24 92 13 142 -23z m-2003 -76 c63 -23 153 -106 164 -151
10 -42 -10 -82 -52 -102 -77 -36 -226 10 -307 97 -38 41 -45 54 -45 89 0 93
96 120 240 67z m518 7 c122 -50 123 -167 1 -134 -83 23 -142 117 -86 140 32
13 43 12 85 -6z m-1113 -88 c75 -35 125 -92 125 -142 0 -9 -13 -29 -29 -45
-25 -25 -37 -29 -83 -29 -69 0 -134 22 -182 62 -69 57 -79 124 -24 162 35 25
132 21 193 -8z m2921 0 c94 -44 174 -137 159 -185 -8 -26 -55 -44 -91 -35 -82
20 -174 84 -204 145 -25 48 -25 54 0 79 27 27 73 25 136 -4z m343 4 c81 -23
160 -110 132 -144 -18 -21 -54 -20 -100 4 -80 40 -122 105 -89 138 14 14 15
14 57 2z m-771 -30 c98 -45 156 -117 133 -167 -11 -24 -16 -25 -66 -21 -95 8
-195 89 -195 159 0 50 54 63 128 29z m-475 -14 c123 -44 198 -159 132 -202
-30 -20 -87 -14 -143 15 -44 23 -107 87 -117 119 -20 66 41 99 128 68z m-482
-21 c102 -35 199 -146 183 -209 -13 -53 -103 -72 -186 -39 -101 39 -176 112
-185 181 -5 34 -2 42 22 60 33 27 100 29 166 7z m-493 -66 c96 -41 162 -114
162 -179 0 -101 -156 -114 -288 -23 -56 38 -102 103 -102 144 0 81 110 109
228 58z m-553 -70 c48 -25 101 -74 121 -111 22 -42 17 -76 -15 -109 -27 -26
-36 -29 -98 -29 -78 0 -145 26 -207 80 -68 60 -83 119 -43 166 41 47 153 49
242 3z m2402 -19 c79 -35 163 -128 163 -181 0 -122 -259 -35 -322 108 -40 91
37 127 159 73z m396 -6 c72 -37 126 -109 107 -144 -34 -64 -220 42 -220 126 0
11 3 24 7 27 12 13 74 7 106 -9z m-828 -38 c23 -14 58 -43 79 -66 31 -34 37
-47 34 -78 -4 -54 -39 -69 -111 -48 -131 38 -222 163 -154 211 29 22 97 13
152 -19z m-460 -12 c77 -38 149 -104 171 -158 18 -42 19 -43 41 -28 17 11 40
13 86 10 105 -9 218 -81 273 -174 l25 -43 37 16 c24 10 51 13 81 9 l44 -6 -37
37 c-93 93 -100 179 -17 204 114 34 341 -126 341 -241 0 -55 -38 -84 -102 -78
l-47 5 44 -42 c24 -24 53 -61 65 -84 18 -36 23 -40 40 -31 10 5 39 10 63 10
92 0 259 -115 288 -199 10 -28 11 -29 41 -14 112 56 358 -118 358 -252 0 -57
-26 -80 -89 -79 l-47 0 44 -43 c24 -24 53 -66 66 -92 21 -45 23 -48 42 -34 28
21 118 12 178 -17 104 -52 195 -169 196 -251 0 -66 -68 -100 -150 -74 -19 6
-12 -4 27 -39 54 -49 113 -149 113 -193 0 -31 -25 -79 -45 -87 -36 -14 -108
-5 -158 19 -92 43 -185 139 -203 208 l-6 27 -31 -26 c-27 -22 -38 -26 -82 -22
l-51 4 44 -44 c47 -49 68 -83 94 -152 9 -25 17 -37 17 -28 1 27 50 58 90 58
87 0 227 -103 270 -200 28 -61 27 -102 -3 -137 -70 -81 -263 13 -338 164 -26
53 -33 62 -39 45 -12 -31 -59 -62 -95 -62 l-34 0 40 -52 c22 -29 45 -69 51
-89 l11 -37 37 25 c70 48 177 16 283 -85 59 -56 102 -130 113 -192 7 -43 -19
-99 -55 -118 -34 -18 -117 -9 -171 18 -64 33 -155 125 -186 187 -21 45 -28 52
-36 38 -12 -22 -68 -45 -108 -45 l-31 0 35 -40 c39 -43 87 -129 87 -157 0 -13
6 -11 30 12 116 111 408 -99 412 -296 2 -84 -50 -133 -133 -126 -104 9 -225
102 -283 218 -31 61 -36 67 -45 50 -13 -24 -92 -55 -125 -49 -23 5 -22 2 16
-48 70 -94 95 -192 63 -254 -26 -50 -61 -70 -124 -70 -145 0 -310 151 -336
307 -14 87 46 163 131 163 l37 0 -41 44 c-22 24 -50 62 -61 85 -12 23 -23 41
-25 41 -2 0 -17 -7 -32 -15 -48 -25 -130 -19 -202 15 -74 35 -162 115 -199
181 -26 45 -28 46 -49 32 -14 -9 -46 -15 -83 -14 l-60 0 43 -54 c167 -204 28
-401 -206 -293 -151 70 -253 247 -203 352 27 57 68 81 140 81 l60 0 -42 42
c-23 24 -52 61 -63 84 -16 31 -25 39 -38 33 -52 -22 -109 -26 -165 -12 l-59
15 41 -41 c48 -49 71 -100 71 -158 0 -108 -109 -149 -235 -90 -65 31 -128 93
-151 148 -19 44 -18 114 2 142 32 46 116 66 178 42 18 -7 7 9 -38 53 -38 37
-72 83 -86 114 l-23 52 -38 -20 c-21 -10 -58 -19 -84 -19 -25 0 -45 -2 -45 -5
0 -3 16 -25 35 -50 82 -107 69 -227 -29 -275 -123 -59 -318 23 -404 169 -35
60 -38 155 -6 198 30 40 73 62 126 65 l46 3 -35 39 c-47 52 -73 111 -73 171
l0 50 -20 -32 c-10 -18 -34 -40 -52 -49 -35 -18 -125 -24 -172 -11 -27 7 -24
3 24 -40 56 -50 100 -127 100 -176 0 -125 -148 -182 -295 -114 -146 68 -223
209 -165 304 32 53 64 68 150 68 l75 0 -50 40 c-104 85 -136 219 -69 285 52
52 163 63 259 25 11 -4 0 6 -25 22 -126 83 -180 199 -130 281 28 46 79 65 160
60 159 -9 314 -143 314 -271 0 -31 2 -42 7 -30 4 11 21 31 38 46 27 23 49 30
118 40 8 1 -2 23 -24 55 -30 42 -38 63 -41 112 -4 55 -2 61 25 89 36 36 97 54
154 45 l43 -7 -42 37 c-41 37 -92 124 -92 158 0 15 -5 14 -37 -8 -78 -53 -229
-15 -334 82 -60 57 -80 92 -81 143 -1 94 90 134 218 97 47 -14 48 -14 24 2
-161 109 -188 252 -54 282 116 26 316 -90 354 -206 12 -35 12 -35 32 -17 16
14 37 18 94 18 l73 0 -38 40 c-79 81 -92 146 -39 190 29 25 38 27 93 23 39 -4
82 -16 120 -34z m-1061 -117 c112 -51 185 -158 156 -227 -19 -47 -61 -63 -142
-58 -161 12 -319 164 -267 257 36 65 145 77 253 28z m-3009 -17 c57 -54 16
-110 -80 -110 -104 0 -167 79 -101 126 34 25 148 15 181 -16z m1271 -26 c69
-33 87 -101 34 -129 -38 -20 -76 -19 -126 4 -103 47 -95 141 12 141 25 0 61
-7 80 -16z m4068 -8 c18 -7 49 -28 70 -46 117 -103 69 -191 -70 -126 -64 30
-124 98 -124 141 0 17 3 35 7 38 11 12 82 8 117 -7z m-2909 -90 c72 -43 100
-104 65 -148 -28 -36 -68 -43 -135 -23 -129 37 -181 160 -85 198 29 12 113 -3
155 -27z m-1897 -1 c111 -33 157 -123 92 -179 -94 -79 -310 -13 -310 94 0 81
100 120 218 85z m1274 -93 c111 -59 111 -166 0 -187 -90 -17 -222 65 -222 137
0 84 112 110 222 50z m3523 -56 c28 -12 69 -44 93 -69 34 -38 42 -54 42 -86 0
-33 -4 -40 -29 -50 -82 -34 -251 85 -251 176 0 57 60 69 145 29z m-2495 3 c95
-22 190 -112 190 -182 0 -14 -11 -39 -24 -54 -22 -26 -30 -28 -93 -28 -56 0
-77 6 -122 30 -128 71 -161 197 -61 232 44 15 54 15 110 2z m-1748 -45 c53
-18 115 -73 124 -111 10 -38 -7 -74 -46 -101 -31 -21 -43 -23 -110 -20 -82 5
-121 21 -168 68 -110 109 28 223 200 164z m6106 -100 c38 -40 39 -68 1 -72
-55 -6 -158 104 -119 128 21 13 80 -15 118 -56z m239 23 c29 -20 53 -54 53
-77 0 -6 -13 -10 -30 -10 -53 0 -131 86 -103 113 9 10 42 -1 80 -26z m-595 -6
c51 -33 71 -61 66 -94 -5 -33 -45 -33 -99 1 -45 29 -82 84 -72 109 9 22 56 15
105 -16z m-4547 -5 c117 -54 151 -164 65 -209 -97 -50 -280 47 -280 148 0 81
107 112 215 61z m4160 5 c150 -68 181 -230 31 -167 -46 19 -107 75 -122 113
-17 40 -17 38 2 57 20 20 40 20 89 -3z m-355 -41 c47 -24 108 -85 116 -116 11
-43 1 -59 -38 -62 -93 -8 -233 129 -188 183 17 21 64 19 110 -5z m-2796 -25
c109 -29 212 -120 231 -205 3 -16 0 -43 -8 -63 -50 -118 -306 -60 -393 88 -49
84 -28 162 50 184 44 13 55 13 120 -4z m2395 -5 c60 -30 102 -71 123 -118 18
-40 18 -45 4 -68 -32 -48 -130 -20 -210 59 -49 49 -68 105 -46 132 18 21 83
19 129 -5z m-4056 -39 c92 -45 147 -134 116 -189 -29 -51 -64 -67 -142 -66
-82 2 -129 19 -183 66 -87 77 -76 177 22 208 44 14 138 4 187 -19z m1152 -84
c127 -65 180 -178 116 -249 -24 -27 -36 -32 -88 -36 -71 -5 -119 8 -187 51
-83 53 -127 149 -95 208 5 11 25 29 42 40 45 28 143 22 212 -14z m4368 2 c63
-32 100 -101 62 -115 -18 -7 -101 40 -115 66 -5 10 -10 28 -10 39 0 24 28 28
63 10z m-300 -39 c104 -66 118 -171 19 -142 -73 22 -155 115 -138 157 9 25 67
18 119 -15z m-397 0 c50 -25 121 -98 130 -136 27 -107 -164 -66 -236 51 -19
31 -27 85 -13 98 13 14 78 6 119 -13z m-5527 -38 c64 -47 66 -113 6 -138 -48
-20 -84 -18 -135 9 -76 38 -92 108 -32 142 36 20 126 13 161 -13z m5138 9 c81
-37 163 -132 163 -189 0 -99 -195 -44 -271 76 -65 103 -6 164 108 113z m-3937
-82 c165 -74 160 -240 -7 -239 -133 1 -250 122 -203 210 27 51 131 65 210 29z
m4748 -161 c32 -32 44 -80 22 -93 -34 -21 -142 51 -155 102 -16 64 62 58 133
-9z m-5421 23 c23 -11 46 -28 52 -39 43 -81 -45 -138 -139 -90 -133 68 -50
191 87 129z m5003 -12 c52 -31 80 -59 102 -103 16 -32 18 -43 9 -64 -11 -22
-16 -24 -56 -20 -90 11 -202 127 -176 184 14 31 71 33 121 3z m-395 -34 c101
-46 193 -173 167 -230 -27 -60 -110 -55 -210 11 -88 58 -149 164 -122 213 24
46 75 48 165 6z m-3456 -11 c69 -20 147 -90 161 -145 20 -74 -35 -139 -117
-139 -94 0 -207 73 -238 154 -15 38 -15 47 -2 78 26 63 97 82 196 52z m-633
-163 c71 -32 94 -91 53 -132 -43 -43 -161 -8 -183 53 -13 38 0 75 31 86 40 15
53 14 99 -7z m4473 -85 c41 -21 91 -83 91 -111 0 -40 -33 -50 -85 -25 -66 32
-107 94 -91 135 7 19 49 19 85 1z m-3939 -97 c85 -38 140 -108 140 -176 0 -95
-100 -139 -222 -97 -113 38 -188 159 -147 235 31 59 143 77 229 38z m4327
-110 c76 -37 125 -133 82 -162 -65 -42 -220 118 -167 171 17 17 35 15 85 -9z
m-411 -23 c136 -63 227 -212 168 -277 -15 -17 -27 -20 -64 -17 -91 9 -190 81
-234 170 -32 65 -33 92 -1 123 31 31 65 32 131 1z m806 -182 c37 -19 97 -83
104 -110 3 -12 4 -33 2 -45 -8 -58 -132 -18 -183 59 -37 57 -41 87 -14 106 24
16 43 14 91 -10z m-403 -30 c66 -33 140 -106 169 -165 79 -163 -76 -205 -229
-62 -93 87 -128 176 -89 226 28 36 78 36 149 1z m-4446 -34 c89 -46 139 -113
139 -188 0 -86 -65 -136 -167 -129 -144 10 -262 127 -241 239 7 40 50 85 92
98 43 14 130 4 177 -20z m4054 -60 c54 -24 137 -101 170 -158 36 -61 37 -126
3 -154 -50 -41 -163 -7 -248 75 -93 89 -122 201 -65 245 24 18 92 14 140 -8z
m1178 -92 c61 -41 107 -110 103 -158 -3 -39 -18 -46 -73 -36 -62 12 -165 126
-165 184 0 51 65 56 135 10z m-382 -45 c81 -42 168 -154 170 -219 3 -106 -132
-88 -242 31 -126 137 -77 265 72 188z m-4307 -23 c129 -56 201 -204 145 -296
-56 -92 -231 -84 -345 17 -78 68 -101 190 -48 249 54 61 153 73 248 30z m3948
-94 c151 -88 205 -287 77 -286 -83 1 -183 76 -232 175 -41 84 -32 135 26 147
31 6 80 -7 129 -36z m1086 -16 c45 -23 127 -110 146 -155 8 -19 14 -47 14 -63
0 -108 -180 -38 -260 102 -67 116 -17 174 100 116z m-1524 -86 c50 -28 100
-84 125 -138 25 -56 24 -82 -7 -113 -22 -22 -31 -24 -67 -19 -103 17 -217 137
-217 229 0 75 75 93 166 41z m1172 -13 c53 -27 125 -108 147 -164 61 -161
-149 -121 -246 47 -31 54 -36 85 -19 117 14 25 69 25 118 0z m-4188 -28 c63
-20 146 -91 171 -148 92 -201 -151 -296 -322 -126 -105 106 -102 229 6 277 41
18 83 17 145 -3z m3833 -80 c66 -34 146 -142 147 -198 0 -32 -28 -65 -56 -65
-41 0 -96 28 -142 73 -134 129 -97 266 51 190z m1089 -33 c77 -51 131 -137
126 -198 -3 -34 -6 -37 -36 -40 -66 -7 -173 83 -208 175 -35 91 26 124 118 63z
m-1478 -109 c45 -28 87 -91 93 -139 5 -35 2 -42 -20 -57 -22 -14 -32 -15 -63
-5 -50 17 -113 76 -136 128 -44 99 22 137 126 73z m1142 11 c107 -78 163 -192
117 -237 -71 -71 -293 151 -244 244 18 32 78 29 127 -7z m-4068 -68 c43 -17
97 -67 118 -106 8 -15 14 -48 14 -73 0 -36 -6 -51 -26 -72 -23 -23 -31 -25
-87 -21 -46 3 -72 11 -101 31 -58 39 -96 100 -96 154 0 88 81 128 178 87z
m2488 -14 c87 -50 152 -140 162 -226 4 -36 0 -47 -21 -68 -90 -90 -326 82
-327 238 0 88 86 114 186 56z m-1429 -39 c59 -27 128 -94 158 -154 75 -152
-40 -256 -197 -176 -100 51 -162 140 -163 232 0 54 3 61 33 88 26 23 41 29 80
29 26 0 66 -9 89 -19z m2661 -11 c50 -36 91 -95 99 -143 4 -30 2 -37 -20 -52
-23 -15 -28 -15 -64 0 -92 39 -174 170 -131 213 21 21 73 14 116 -18z m1041
-14 c42 -22 98 -90 112 -136 11 -35 10 -43 -3 -57 -23 -22 -60 -10 -109 34
-60 54 -98 141 -72 166 11 11 42 8 72 -7z m-334 -96 c94 -58 140 -200 66 -200
-70 0 -189 147 -162 199 15 27 53 27 96 1z m-3921 -31 c133 -49 228 -213 182
-310 -60 -128 -275 -77 -372 87 -53 89 -36 190 36 226 46 23 87 23 154 -3z
m-1137 -29 c79 -36 111 -137 57 -179 -87 -69 -238 49 -198 154 7 18 57 44 84
44 8 0 34 -8 57 -19z m3546 -46 c95 -48 158 -157 133 -231 -17 -53 -110 -37
-179 31 -56 54 -78 96 -79 148 -1 66 53 88 125 52z m2215 -48 c55 -29 106
-107 100 -154 -3 -23 -7 -27 -32 -25 -35 3 -89 52 -117 105 -22 43 -24 59 -7
76 15 15 23 15 56 -2z m-2649 -93 c91 -56 157 -181 129 -241 -7 -14 -25 -33
-39 -41 -57 -32 -178 37 -233 132 -83 145 4 235 143 150z m-2546 -41 c76 -44
120 -142 93 -206 -18 -43 -42 -56 -103 -56 -127 1 -239 159 -173 243 13 16 32
33 44 38 29 12 103 3 139 -19z m1051 -24 c54 -16 131 -92 147 -147 29 -98 -30
-164 -124 -140 -55 13 -120 67 -147 120 -28 53 -26 120 3 146 38 35 60 39 121
21z m1011 -32 c136 -63 240 -250 191 -344 -32 -63 -88 -77 -180 -46 -61 21
-153 105 -191 176 -24 42 -29 66 -30 116 0 59 2 66 33 93 42 37 104 39 177 5z
m1352 -22 c79 -60 120 -151 89 -199 -21 -32 -57 -32 -112 0 -85 50 -141 176
-98 219 23 24 75 16 121 -20z m-2902 -129 c81 -39 149 -132 161 -218 24 -173
-193 -216 -332 -65 -98 106 -97 256 1 299 31 14 126 5 170 -16z m2479 -12 c49
-34 103 -111 112 -160 22 -115 -89 -138 -189 -38 -78 77 -104 160 -66 209 20
25 27 28 62 23 22 -3 59 -18 81 -34z m-1458 -10 c67 -23 164 -120 187 -187 21
-60 21 -87 3 -131 -68 -161 -365 10 -366 210 0 59 18 91 64 111 41 17 53 17
112 -3z m946 -95 c90 -27 188 -154 188 -243 0 -152 -204 -105 -290 67 -39 79
-39 120 -1 159 33 32 46 34 103 17z m1328 -13 c47 -24 83 -80 84 -128 1 -40
-1 -42 -31 -45 -72 -7 -167 130 -121 176 16 16 33 15 68 -3z m-405 -104 c49
-22 120 -97 146 -154 39 -87 16 -167 -48 -167 -40 0 -125 52 -162 98 -68 87
-87 168 -50 216 24 31 57 33 114 7z m-1352 -49 c136 -73 212 -261 140 -342
-60 -67 -169 -43 -263 56 -84 89 -117 190 -84 259 33 70 110 80 207 27z
m-1017 -25 c110 -76 128 -236 29 -261 -69 -17 -179 56 -211 139 -48 128 64
203 182 122z m1954 -116 c52 -37 82 -131 49 -152 -54 -34 -149 49 -149 130 0
52 44 61 100 22z m-2600 -37 c100 -30 190 -149 190 -251 0 -126 -123 -182
-251 -115 -168 88 -202 327 -53 372 42 12 55 12 114 -6z m3429 -33 c67 -35
131 -124 146 -204 10 -51 -14 -87 -57 -87 -114 0 -251 204 -192 288 19 27 53
28 103 3z m-1321 -47 c107 -53 186 -193 162 -285 -26 -97 -152 -89 -248 16
-61 65 -86 120 -86 188 -1 52 2 61 27 83 37 31 79 31 145 -2z m-978 -43 c96
-70 92 -214 -6 -198 -111 18 -183 186 -94 220 23 9 73 -1 100 -22z m1925 -114
c99 -99 47 -203 -55 -111 -68 61 -76 154 -13 154 17 0 40 -14 68 -43z m-1428
-73 c115 -67 183 -235 126 -312 -47 -64 -143 -52 -228 29 -178 169 -96 398
102 283z m-1079 -10 c48 -39 82 -106 82 -162 0 -35 -6 -49 -30 -74 -28 -28
-36 -30 -80 -26 -137 13 -234 213 -137 284 36 25 119 14 165 -22z m3350 -27
c42 -41 82 -122 82 -167 0 -117 -139 -69 -209 72 -42 83 -39 135 9 151 23 7
81 -20 118 -56z m-1306 -52 c38 -25 81 -89 93 -137 10 -40 -1 -75 -30 -94 -33
-21 -80 -6 -130 44 -45 45 -62 77 -71 130 -5 35 -3 44 20 67 31 31 58 29 118
-10z m908 -102 c36 -40 50 -72 50 -112 0 -108 -149 -27 -175 96 -5 24 -2 36
14 52 17 17 25 19 50 10 17 -6 44 -27 61 -46z m-1394 -52 c129 -75 212 -259
157 -351 -62 -106 -246 -31 -325 133 -88 181 10 308 168 218z m2178 -90 c37
-34 70 -105 62 -137 -15 -58 -105 -8 -140 78 -20 47 -20 63 -1 82 19 18 40 12
79 -23z m-379 -103 c86 -75 110 -208 38 -208 -74 0 -170 144 -143 214 14 38
59 35 105 -6z m-3471 -89 c52 -36 79 -83 84 -148 4 -49 1 -61 -19 -85 -92
-105 -295 68 -239 204 26 62 107 75 174 29z m2120 16 c87 -41 170 -171 171
-267 0 -74 -28 -108 -90 -108 -153 0 -303 267 -209 371 21 24 83 25 128 4z
m-974 -55 c39 -28 70 -89 70 -139 0 -31 -6 -44 -27 -61 -29 -23 -59 -21 -100
5 -72 47 -107 161 -63 205 27 27 74 23 120 -10z m2706 -149 c92 -56 110 -230
18 -181 -55 30 -106 139 -84 180 13 25 27 25 66 1z m-2229 -22 c120 -58 207
-244 158 -339 -45 -87 -151 -76 -245 26 -79 86 -114 215 -76 283 29 52 92 64
163 30z m520 -275 c122 -71 210 -265 168 -372 -56 -138 -240 -60 -335 140 -52
109 -37 223 33 253 39 17 78 11 134 -21z m2149 -39 c54 -57 72 -155 31 -163
-48 -9 -138 145 -107 183 19 23 40 18 76 -20z m-1695 -301 c71 -36 132 -146
133 -237 1 -50 -3 -62 -23 -78 -33 -27 -62 -24 -116 14 -66 45 -115 127 -122
204 -10 109 36 144 128 97z m-962 -30 c48 -43 76 -109 68 -160 -8 -50 -23 -64
-68 -64 -33 0 -47 7 -82 43 -64 64 -83 143 -46 191 31 39 78 36 128 -10z m484
-210 c46 -30 101 -104 122 -163 22 -65 20 -152 -5 -184 -84 -107 -292 71 -294
253 -2 119 75 160 177 94z m442 -293 c96 -43 177 -175 183 -298 4 -70 3 -74
-26 -103 -39 -39 -74 -39 -135 -1 -147 94 -216 366 -104 411 31 12 37 12 82
-9z m-464 -314 c44 -29 76 -78 95 -144 13 -46 14 -60 2 -96 -22 -71 -88 -76
-153 -12 -43 44 -63 82 -74 141 -21 113 44 169 130 111z m472 -281 c44 -19
100 -80 132 -143 68 -137 47 -273 -42 -273 -69 0 -134 58 -184 163 -37 79 -46
150 -24 203 23 59 60 75 118 50z m436 -401 c45 -23 108 -101 132 -164 12 -31
24 -85 27 -121 3 -56 1 -69 -18 -92 -33 -43 -79 -39 -135 13 -110 102 -158
311 -82 364 27 19 40 19 76 0z m-442 -225 c58 -35 103 -127 103 -209 0 -62
-21 -91 -65 -91 -71 0 -149 116 -149 222 -1 91 42 121 111 78z m393 -409 c65
-45 120 -169 120 -268 0 -44 -5 -58 -25 -78 -30 -31 -43 -31 -86 -2 -77 51
-135 183 -127 285 8 87 50 110 118 63z m280 -677 c18 -21 41 -58 52 -83 25
-55 36 -188 19 -219 -28 -52 -103 -3 -149 97 -29 63 -42 184 -23 219 19 35 63
29 101 -14z"/>
<path d="M35516 8604 c-19 -19 -19 -18 -1 -54 24 -47 86 -77 148 -72 22 2 23
49 1 81 -17 24 -86 60 -116 61 -9 0 -24 -7 -32 -16z"/>
<path d="M35078 8574 c-30 -30 -117 -30 -203 1 -11 4 -6 -2 12 -14 56 -35 112
-102 130 -151 l17 -48 28 23 c28 24 107 43 127 30 19 -11 12 5 -15 33 -32 34
-64 95 -64 122 0 24 -10 26 -32 4z"/>
<path d="M35961 8376 c-29 -35 42 -108 108 -110 31 -1 36 3 39 22 8 57 -113
129 -147 88z"/>
<path d="M35444 8305 c-19 -48 50 -115 118 -115 45 0 59 27 33 66 -35 53 -137
86 -151 49z"/>
<path d="M36360 8150 c0 -49 90 -109 133 -88 51 26 -27 118 -100 118 -30 0
-33 -3 -33 -30z"/>
<path d="M35375 8014 c-39 -40 38 -124 113 -124 71 0 59 80 -17 120 -48 24
-74 25 -96 4z"/>
<path d="M36750 7975 c-32 -38 49 -127 118 -129 34 -1 37 2 40 28 4 34 -35 81
-85 102 -41 18 -58 18 -73 -1z"/>
<path d="M35309 7706 c-67 -34 21 -144 106 -134 39 4 52 28 36 66 -22 53 -99
90 -142 68z"/>
<path d="M34802 7665 c-13 -13 -39 -29 -59 -36 -35 -11 -125 -8 -168 6 -16 5
-15 2 5 -12 93 -68 149 -152 151 -227 0 -31 2 -36 8 -21 19 46 93 85 162 85
l41 0 -35 39 c-46 51 -59 75 -72 138 l-10 52 -23 -24z"/>
<path d="M36737 7663 c-18 -17 -5 -58 28 -88 67 -64 143 -54 115 15 -22 53
-116 101 -143 73z"/>
<path d="M37209 7474 c-9 -8 -34 -18 -57 -21 l-40 -5 39 -52 c21 -28 44 -66
50 -83 10 -32 11 -32 35 -17 18 12 40 15 83 12 l59 -4 -45 39 c-24 22 -58 64
-75 94 -16 29 -31 53 -32 53 -1 0 -9 -7 -17 -16z"/>
<path d="M35212 7394 c-12 -8 -22 -24 -22 -36 0 -36 39 -86 84 -107 51 -25 65
-26 94 -5 46 32 13 112 -62 148 -43 20 -66 20 -94 0z"/>
<path d="M36693 7344 c-17 -46 64 -127 122 -122 56 5 43 79 -21 118 -38 24
-92 26 -101 4z"/>
<path d="M35706 7139 c-40 -57 78 -164 143 -129 44 23 15 102 -49 135 -41 21
-76 19 -94 -6z"/>
<path d="M36663 7029 c-44 -45 55 -162 122 -145 70 18 8 135 -80 152 -18 3
-35 0 -42 -7z"/>
<path d="M36162 6928 c-18 -18 -14 -62 9 -92 53 -67 149 -75 149 -13 0 68
-117 146 -158 105z"/>
<path d="M36596 6714 c-27 -27 -19 -70 20 -114 67 -74 154 -77 154 -5 0 41
-48 101 -97 121 -42 18 -58 18 -77 -2z"/>
<path d="M26823 7935 c-151 -42 -237 -133 -264 -281 -10 -55 -7 -128 7 -181 6
-22 3 -23 -45 -23 l-51 0 0 -120 0 -120 405 0 405 0 0 120 0 120 -182 0 c-154
0 -188 3 -218 18 -42 21 -60 53 -60 108 0 106 37 136 171 136 90 0 96 -2 232
-70 4 -2 7 54 7 125 l0 128 -58 24 c-48 21 -77 25 -177 28 -83 2 -136 -2 -172
-12z"/>
<path d="M15870 5700 l0 -1590 270 0 270 0 0 1590 0 1590 -270 0 -270 0 0
-1590z"/>
<path d="M20668 7088 c-388 -430 -831 -911 -877 -952 -20 -18 -21 -27 -21
-258 l0 -238 433 0 c466 0 515 -5 623 -54 112 -51 202 -168 235 -306 18 -77
16 -279 -4 -357 -35 -133 -99 -219 -205 -272 -138 -70 -256 -81 -857 -81
l-473 0 -5 443 c-5 474 -7 499 -62 663 -102 304 -320 485 -665 549 -115 21
-357 21 -486 0 -239 -40 -431 -135 -583 -286 -223 -223 -325 -527 -300 -890
23 -337 145 -583 365 -736 61 -43 211 -112 296 -137 156 -45 272 -57 591 -63
l297 -6 0 -34 c0 -18 -7 -69 -16 -111 -62 -303 -306 -438 -728 -402 -157 13
-299 40 -424 79 l-92 29 0 -264 c0 -163 4 -264 10 -264 5 0 83 -11 172 -24
667 -101 1110 -24 1372 237 160 159 241 352 268 634 l12 122 1785 4 c1962 3
1860 0 2106 64 426 110 637 358 685 805 40 381 -53 701 -274 935 -207 220
-477 324 -842 324 -166 0 -288 -17 -402 -55 -298 -102 -474 -312 -548 -656
-14 -61 -17 -159 -21 -517 l-5 -443 -249 0 c-137 0 -249 3 -249 6 0 3 15 47
34 98 55 146 71 239 70 416 -1 276 -73 482 -234 670 -175 203 -491 337 -800
341 -41 0 -94 4 -116 7 l-41 7 528 582 c291 320 529 585 529 588 0 3 -146 5
-324 5 l-325 0 -183 -202z m-2028 -1324 c149 -35 243 -135 298 -317 13 -42 16
-129 19 -466 l4 -414 -243 6 c-275 7 -351 19 -465 73 -183 87 -264 249 -266
524 -1 216 44 350 158 466 123 124 308 172 495 128z m4516 5 c142 -26 271
-123 337 -255 55 -110 71 -188 70 -344 -2 -276 -83 -435 -265 -524 -114 -55
-189 -67 -471 -73 l-248 -6 3 399 c4 372 6 404 26 477 51 185 143 284 300 321
70 18 169 19 248 5z"/>
<path d="M24490 5700 l0 -1590 275 0 275 0 0 1590 0 1590 -275 0 -275 0 0
-1590z"/>
<path d="M14868 6043 c-3 -1179 -4 -1240 -22 -1288 -41 -109 -110 -157 -256
-176 -118 -16 -324 -6 -425 21 -44 12 -83 24 -87 28 -3 4 -3 41 2 82 5 41 9
357 10 703 l0 627 -275 0 -275 0 0 -583 c0 -379 -4 -604 -11 -642 -20 -109
-65 -170 -159 -214 -51 -24 -65 -26 -195 -26 -126 0 -243 15 -272 34 -6 4 -7
32 -2 76 4 39 8 359 8 713 l1 642 -275 0 -275 0 0 -605 c0 -409 -4 -621 -11
-657 -16 -76 -44 -124 -90 -158 -61 -44 -120 -53 -327 -49 -179 4 -184 5 -203
28 -18 22 -19 49 -19 732 l0 709 -275 0 -275 0 0 -735 0 -735 -471 0 -471 0
31 38 c18 20 63 75 102 122 97 116 190 259 249 382 126 263 138 464 38 662
-40 80 -179 218 -274 275 -382 225 -980 273 -1451 116 -390 -130 -603 -364
-603 -663 0 -238 152 -541 426 -848 35 -39 64 -74 64 -78 0 -3 -191 -6 -425
-6 l-425 0 0 364 c0 200 -5 409 -10 465 -42 410 -238 682 -570 789 -165 54
-436 70 -635 37 -408 -66 -705 -313 -828 -690 -96 -293 -69 -688 64 -945 74
-142 148 -219 298 -309 211 -127 445 -171 912 -171 l219 0 0 -27 c-1 -16 -7
-63 -15 -106 -37 -209 -162 -343 -372 -398 -112 -30 -349 -30 -527 1 -108 18
-270 59 -339 85 -16 7 -17 -8 -15 -256 l3 -264 65 -12 c321 -59 728 -76 935
-39 360 64 598 228 724 496 59 127 83 229 107 463 l6 58 1966 -5 c1082 -3
2021 -8 2087 -11 200 -10 384 20 519 86 l63 31 94 -31 c379 -124 830 -118
1057 15 l45 26 76 -26 c103 -35 233 -63 369 -77 144 -15 446 -6 567 16 114 21
253 67 325 107 86 49 171 143 219 240 73 149 71 100 71 1529 l0 1269 -280 0
-280 0 -2 -1237z m-5199 -264 c197 -18 364 -72 451 -146 49 -41 73 -103 65
-166 -23 -172 -185 -427 -420 -662 -108 -109 -221 -195 -254 -195 -35 0 -119
67 -251 200 -231 231 -391 473 -420 637 -13 70 -12 74 11 120 79 153 443 247
818 212z m-2617 -10 c173 -37 278 -154 325 -361 14 -61 17 -135 18 -453 l0
-380 -235 1 c-270 0 -359 13 -478 69 -174 82 -255 229 -269 490 -17 324 132
568 383 629 73 18 186 20 256 5z"/>
<path d="M732 7115 c-251 -78 -269 -438 -27 -546 35 -16 69 -23 115 -23 174 1
302 142 288 319 -15 183 -199 306 -376 250z"/>
<path d="M1412 7116 c-82 -27 -151 -93 -182 -174 -84 -221 113 -446 340 -388
135 35 220 140 222 275 2 163 -113 289 -271 297 -39 2 -84 -2 -109 -10z"/>
<path d="M26610 5530 l0 -1420 270 0 270 0 0 1420 0 1420 -270 0 -270 0 0
-1420z"/>
<path d="M1018 6239 c-549 -38 -923 -375 -1005 -904 -29 -191 0 -469 67 -644
101 -262 311 -440 616 -524 171 -48 205 -49 1059 -54 569 -3 839 -1 908 7 373
43 584 203 669 506 22 78 23 87 26 852 l3 772 -280 0 -280 0 -3 -732 -3 -733
-23 -51 c-59 -131 -156 -163 -484 -164 l-178 0 0 353 c0 193 -5 403 -11 466
-35 378 -196 636 -477 763 -89 40 -234 76 -335 83 -45 3 -100 7 -122 9 -22 1
-88 -1 -147 -5z m194 -470 c173 -37 281 -159 325 -369 15 -73 18 -138 18 -455
l0 -370 -235 1 c-277 0 -361 13 -487 74 -172 84 -248 226 -260 485 -18 388
183 640 514 644 40 1 96 -4 125 -10z"/>
<path d="M4020 6016 l0 -236 278 0 c212 0 292 -4 341 -15 179 -43 308 -174
369 -377 12 -43 16 -125 19 -435 l4 -383 -730 0 -731 0 0 -230 0 -230 1010 0
1010 0 0 584 c0 633 -3 677 -57 841 -122 376 -416 622 -823 690 -64 11 -192
18 -392 22 l-298 6 0 -237z"/>
<path d="M25667 5023 c-4 -1136 0 -1074 -75 -1217 -66 -125 -167 -205 -307
-241 -123 -31 -349 -12 -522 44 l-83 27 0 -262 0 -261 73 -12 c301 -46 589
-36 827 29 106 30 245 100 328 165 161 129 261 316 309 578 14 81 17 218 20
1130 l4 1037 -285 0 -285 0 -4 -1017z"/>
<path d="M2275 3627 c-135 -45 -209 -143 -209 -277 1 -202 196 -339 390 -273
71 24 157 112 178 183 31 103 11 199 -57 276 -75 85 -203 123 -302 91z"/>
<path d="M2943 3622 c-124 -44 -193 -141 -193 -271 0 -86 25 -148 85 -208 82
-81 196 -105 307 -63 74 28 122 70 157 142 94 186 -32 401 -244 415 -42 2 -76
-2 -112 -15z"/>
<path d="M11520 2520 c0 -477 1 -469 -46 -436 -41 29 -152 67 -239 83 -158 27
-407 4 -568 -54 -333 -119 -539 -347 -635 -702 -24 -89 -26 -111 -26 -311 0
-184 3 -228 21 -306 83 -355 273 -562 618 -673 180 -58 246 -64 848 -68 l547
-5 -2 1459 -3 1458 -257 3 -258 2 0 -450z m-285 -815 c141 -39 221 -143 261
-336 13 -68 18 -161 22 -478 l4 -393 -238 4 c-261 5 -335 16 -451 69 -79 35
-161 112 -202 189 -99 185 -105 472 -16 669 107 233 362 346 620 276z"/>
<path d="M12570 2911 c-199 -61 -269 -316 -131 -474 81 -91 230 -119 343 -64
105 51 160 140 160 259 0 163 -128 290 -291 287 -31 0 -67 -4 -81 -8z"/>
<path d="M4265 2220 c-454 -49 -714 -268 -732 -615 -6 -121 7 -199 47 -282 41
-83 106 -152 203 -217 134 -89 214 -120 564 -221 122 -35 240 -73 261 -84 57
-29 82 -65 82 -117 0 -37 -6 -51 -37 -85 -42 -47 -122 -90 -214 -115 -50 -14
-102 -18 -234 -19 -155 0 -180 3 -280 29 -110 28 -296 96 -373 135 -23 12 -44
21 -47 21 -3 0 -5 -114 -5 -254 l0 -254 68 -25 c384 -141 844 -151 1181 -24
127 48 195 91 286 182 92 91 127 151 155 261 48 185 10 374 -100 497 -105 118
-254 193 -615 312 -357 117 -425 157 -425 250 0 77 64 130 197 161 54 13 102
15 233 11 167 -6 286 -25 421 -67 35 -10 66 -15 69 -10 10 17 123 451 118 456
-10 9 -146 34 -293 54 -178 23 -418 32 -530 20z"/>
<path d="M21087 2189 c-211 -14 -415 -53 -609 -115 l-108 -35 0 -995 0 -994
265 0 265 0 2 817 3 817 70 20 c56 15 103 20 230 20 156 1 161 0 218 -27 39
-20 66 -42 84 -68 51 -78 53 -97 53 -866 l0 -713 276 0 275 0 -4 773 c-2 511
-7 785 -14 810 -11 38 -11 39 21 52 70 30 197 48 302 43 90 -4 111 -9 168 -37
80 -39 120 -86 146 -170 19 -60 20 -95 20 -767 l0 -704 271 0 270 0 -4 788
c-4 875 -2 851 -73 997 -125 257 -439 388 -850 355 -194 -15 -339 -45 -495
-101 l-57 -21 -60 31 c-90 45 -215 78 -343 90 -125 12 -148 12 -322 0z"/>
<path d="M24455 2179 c-156 -23 -351 -98 -470 -184 -87 -62 -212 -198 -269
-294 -109 -181 -159 -378 -159 -626 -1 -332 89 -578 283 -775 194 -197 442
-291 769 -291 266 -1 479 63 659 195 l64 47 -34 42 c-19 23 -74 94 -123 157
-48 63 -94 121 -101 129 -11 12 -25 8 -91 -27 -101 -52 -164 -70 -271 -77
-114 -8 -231 13 -329 59 -131 63 -220 178 -264 343 -30 110 -30 325 -1 434 52
193 164 323 327 379 188 65 420 40 580 -61 25 -16 49 -29 53 -29 5 0 58 86
120 192 l111 191 -38 29 c-183 134 -538 207 -816 167z"/>
<path d="M6345 2173 c-512 -66 -854 -396 -932 -898 -29 -191 0 -469 67 -644
108 -280 336 -462 669 -536 165 -37 308 -45 854 -45 l509 0 -5 653 c-4 553 -7
665 -21 737 -82 420 -320 660 -721 725 -82 14 -340 18 -420 8z m319 -475 c146
-48 238 -160 283 -347 12 -53 17 -146 20 -460 l5 -393 -264 5 c-296 6 -358 15
-476 73 -184 90 -272 267 -272 548 0 232 82 411 238 518 118 81 318 105 466
56z"/>
<path d="M14955 2169 c-444 -65 -767 -351 -876 -776 -61 -240 -40 -551 52
-781 37 -94 123 -224 183 -280 88 -82 219 -157 351 -203 193 -66 348 -79 973
-79 l502 0 0 638 c0 524 -3 654 -15 732 -69 426 -306 674 -710 745 -96 16
-357 19 -460 4z m265 -454 c154 -17 273 -122 324 -285 37 -115 46 -237 46
-601 l0 -331 -262 5 c-285 5 -352 15 -472 72 -122 57 -216 181 -253 331 -24
97 -23 325 1 414 50 184 159 311 318 372 56 21 163 37 213 32 17 -2 55 -6 85
-9z"/>
<path d="M17389 2170 c-582 -57 -869 -327 -928 -872 -7 -57 -11 -338 -11 -673
l0 -575 274 0 275 0 3 603 c3 534 6 609 21 662 58 201 185 333 363 379 100 26
334 16 443 -19 13 -4 27 35 78 232 34 130 61 238 60 240 -2 1 -43 7 -92 13
-129 14 -386 20 -486 10z"/>
<path d="M18825 2165 c-447 -82 -741 -350 -852 -774 -46 -176 -43 -444 7 -641
97 -381 360 -601 810 -677 77 -13 202 -17 673 -20 l577 -5 0 637 c0 404 -4
662 -11 708 -62 412 -267 657 -634 753 -88 24 -123 27 -295 30 -141 2 -217 -1
-275 -11z m306 -450 c128 -14 244 -101 305 -228 59 -125 65 -178 71 -606 l5
-383 -263 5 c-296 5 -356 14 -477 72 -129 61 -212 167 -253 322 -29 110 -29
317 -1 425 61 228 217 372 432 398 36 4 79 6 95 4 17 -2 55 -6 86 -9z"/>
<path d="M26277 2154 c-218 -39 -413 -141 -572 -299 -419 -415 -429 -1084 -21
-1512 207 -219 477 -334 781 -334 286 0 534 98 739 291 218 206 336 482 336
788 0 187 -34 332 -118 498 -210 417 -683 652 -1145 568z m366 -506 c245 -79
408 -300 408 -553 1 -112 -12 -168 -64 -274 -107 -221 -356 -356 -596 -321
-284 40 -494 264 -517 549 -20 251 148 506 389 591 124 44 262 47 380 8z"/>
<path d="M7822 1373 c3 -769 4 -779 26 -858 72 -260 220 -403 488 -471 188
-47 619 -52 828 -9 347 72 511 263 546 640 6 63 10 404 10 793 l0 682 -280 0
-279 0 -3 -722 c-4 -818 0 -781 -84 -864 -33 -33 -59 -48 -113 -65 -63 -19
-89 -21 -229 -17 -181 5 -235 21 -297 89 -74 82 -70 30 -73 847 l-3 732 -270
0 -270 0 3 -777z"/>
<path d="M12390 1070 l0 -1020 265 0 265 0 0 1020 0 1020 -265 0 -265 0 0
-1020z"/>
</g>
</svg>
